<svg xmlns="http://www.w3.org/2000/svg" width="600" height="400" viewBox="0 0 600 400" fill="none">
  <!-- Laptop Base -->
  <rect x="150" y="250" width="300" height="20" rx="5" fill="#333" />
  
  <!-- Laptop Screen -->
  <rect x="170" y="100" width="260" height="160" rx="5" fill="#444" />
  <rect x="180" y="110" width="240" height="140" rx="3" fill="#222" />
  
  <!-- Code Lines -->
  <rect x="200" y="130" width="80" height="6" rx="3" fill="#5D87FF" />
  <rect x="200" y="145" width="120" height="6" rx="3" fill="#666" />
  <rect x="200" y="160" width="100" height="6" rx="3" fill="#666" />
  <rect x="220" y="175" width="140" height="6" rx="3" fill="#5D87FF" />
  <rect x="220" y="190" width="90" height="6" rx="3" fill="#666" />
  <rect x="200" y="205" width="120" height="6" rx="3" fill="#5D87FF" />

  <!-- Floating Symbols -->
  <circle cx="380" cy="130" r="15" fill="#5D87FF" opacity="0.7" />
  <rect x="370" y="180" width="30" height="30" rx="5" fill="#5D87FF" opacity="0.5" />
  <polygon points="410,210 430,240 390,240" fill="#5D87FF" opacity="0.6" />
  
  <!-- Python Logo -->
  <g transform="translate(450, 120) scale(0.4)">
    <path d="M60.51,6.398C55.463,6.399 50.736,6.857 46.676,7.723C35.033,10.134 32.893,15.77 32.893,24.296L32.893,38.355L61.988,38.355L61.988,42.427L32.893,42.427L20.068,42.427C11.543,42.427 4.097,47.816 1.574,58.414C-1.284,70.529 -1.445,78.092 1.574,90.839C3.752,100.328 9.41,107.314 17.935,107.314L30.358,107.314L30.358,91.465C30.358,81.938 38.334,73.756 47.935,73.756L77.014,73.756C84.996,73.756 91.266,67.305 91.266,59.323L91.266,24.296C91.266,16.582 84.845,11.129 77.014,9.826C72.07,8.983 67.557,6.398 60.51,6.398ZM44.956,15.807C48.195,15.807 50.843,18.489 50.843,21.795C50.843,25.08 48.195,27.728 44.956,27.728C41.695,27.728 39.046,25.08 39.046,21.795C39.046,18.489 41.695,15.807 44.956,15.807Z" fill="#356EA0"/>
    <path d="M64.523,42.427L64.523,57.524C64.523,67.468 56.337,75.825 47.935,75.825L18.856,75.825C10.96,75.825 4.434,82.46 4.434,90.355L4.434,125.382C4.434,133.096 10.986,138.261 18.856,140.073C28.297,142.213 37.374,142.676 47.935,140.073C55.004,138.319 61.988,134.378 61.988,125.382L61.988,111.323L32.893,111.323L32.893,107.251L61.988,107.251L77.014,107.251C85.539,107.251 88.451,101.292 91.266,90.839C94.196,80.002 94.094,69.591 91.266,58.414C89.209,50.558 85.539,42.428 77.014,42.428L64.523,42.428L64.523,42.427ZM47.935,115.346C51.196,115.346 53.844,117.994 53.844,121.279C53.844,124.586 51.196,127.234 47.935,127.234C44.696,127.234 42.048,124.586 42.048,121.279C42.048,117.994 44.696,115.346 47.935,115.346Z" fill="#FFD046"/>
  </g>
</svg>
